<svg xmlns="http://www.w3.org/2000/svg" width="63.333" height="50.132" viewBox="0 0 63.333 50.132">
  <g id="Group_88" data-name="Group 88" transform="translate(-562.667 -441.868)">
    <circle id="Ellipse_6" data-name="Ellipse 6" cx="19" cy="19" r="19" transform="translate(588 454)" fill="#797bc7"/>
    <g id="_864685" data-name="864685" transform="translate(562.667 441.868)">
      <g id="Group_77" data-name="Group 77" transform="translate(0 0)">
        <path id="Path_205" data-name="Path 205" d="M56.876,96.988H53.053v-1.3a1.124,1.124,0,0,0-.809-1.124,31.669,31.669,0,0,0-8.106-1.034c-4.5,0-10.624,1.012-15.155,5.621-4.5-4.654-10.669-5.621-15.155-5.621A31.669,31.669,0,0,0,5.722,94.56a1.124,1.124,0,0,0-.809,1.124v1.293H1.124A1.124,1.124,0,0,0,0,98.1V134.01a1.122,1.122,0,0,0,1.675.978c.112-.056,11.355-6.206,27.049-2.249h.27a1.126,1.126,0,0,0,.27,0c15.739-3.991,26.982,2.147,27.049,2.249A1.124,1.124,0,0,0,58,134.021V98.113A1.124,1.124,0,0,0,56.876,96.988ZM2.248,132.222V99.237H4.935v28.2a1.124,1.124,0,0,0,1.293,1.124A49.194,49.194,0,0,1,13.255,128a29.162,29.162,0,0,1,9.6,1.45A41.331,41.331,0,0,0,2.248,132.222Zm11.006-6.464a49.465,49.465,0,0,0-6.116.393V96.572a31.008,31.008,0,0,1,6.667-.742c4.2,0,10.006.967,14.031,5.509l.034,28.005C25.532,127.815,20.967,125.758,13.255,125.758Zm16.864-24.419c4.025-4.5,9.826-5.509,14.031-5.509a31.143,31.143,0,0,1,6.667.742v29.579a49.46,49.46,0,0,0-6.082-.4c-7.667,0-12.243,2.057-14.615,3.586ZM55.74,132.222a41.338,41.338,0,0,0-20.652-2.777A29.231,29.231,0,0,1,44.734,128a49.186,49.186,0,0,1,7.072.551,1.124,1.124,0,0,0,1.293-1.124V99.237h2.687Z" transform="translate(0 -93.526)" fill="#1d1f74"/>
      </g>
    </g>
  </g>
</svg>
