<svg xmlns="http://www.w3.org/2000/svg" width="58" height="56" viewBox="0 0 58 56">
  <g id="Group_1317" data-name="Group 1317" transform="translate(-383 -438)">
    <circle id="Ellipse_5" data-name="Ellipse 5" cx="19" cy="19" r="19" transform="translate(403 456)" fill="#797bc7"/>
    <g id="_3164130" data-name="3164130" transform="translate(382 436.5)">
      <path id="Path_213" data-name="Path 213" d="M48,6.5H31v-3a2,2,0,0,0-2-2H23a2,2,0,0,0-2,2v3H4a3,3,0,0,0-3,3v28a3,3,0,0,0,3,3H16.234l-5.091,8.485A1,1,0,0,0,12,50.5h8a1,1,0,0,0,.857-.485L26,41.444l5.143,8.571A1,1,0,0,0,32,50.5h8a1,1,0,0,0,.857-1.515L35.766,40.5H48a3,3,0,0,0,3-3V9.5A3,3,0,0,0,48,6.5Zm-25-3h6v3H23Zm-3.566,45H13.766l4.8-8h5.668Zm18.8,0H32.566l-4.8-8h5.668ZM44,38.5H35v-3h9Zm5-1a1,1,0,0,1-1,1H46v-4a1,1,0,0,0-1-1H34a1,1,0,0,0-1,1v4H4a1,1,0,0,1-1-1V9.5a1,1,0,0,1,1-1H48a1,1,0,0,1,1,1Z" fill="#1d1f74"/>
    </g>
  </g>
</svg>
