<svg xmlns="http://www.w3.org/2000/svg" width="54" height="54" viewBox="0 0 54 54">
  <g id="Group_1322" data-name="Group 1322" transform="translate(-774 -131)">
    <circle id="Ellipse_33" data-name="Ellipse 33" cx="27" cy="27" r="27" transform="translate(774 131)" fill="#1d1f74"/>
    <path id="ic_business_24px" d="M18.065,9.426V3H2V31.917H34.13V9.426ZM8.426,28.7H5.213V25.491H8.426Zm0-6.426H5.213V19.065H8.426Zm0-6.426H5.213V12.639H8.426Zm0-6.426H5.213V6.213H8.426ZM14.852,28.7H11.639V25.491h3.213Zm0-6.426H11.639V19.065h3.213Zm0-6.426H11.639V12.639h3.213Zm0-6.426H11.639V6.213h3.213ZM30.917,28.7H18.065V25.491h3.213V22.278H18.065V19.065h3.213V15.852H18.065V12.639H30.917ZM27.7,15.852H24.491v3.213H27.7Zm0,6.426H24.491v3.213H27.7Z" transform="translate(784 139)" fill="#fff"/>
  </g>
</svg>
