<svg xmlns="http://www.w3.org/2000/svg" width="49.102" height="63.954" viewBox="0 0 49.102 63.954">
  <g id="Group_94" data-name="Group 94" transform="translate(-942.23 -430.178)">
    <circle id="Ellipse_8" data-name="Ellipse 8" cx="19" cy="19" r="19" transform="translate(953.333 456.132)" fill="#797bc7"/>
    <g id="Group_93" data-name="Group 93" transform="translate(-222.77 -80.822)">
      <path id="Path_226" data-name="Path 226" d="M36.931,5.636H26.5V4.477A3.477,3.477,0,0,0,23.022,1H18.386a3.477,3.477,0,0,0-3.477,3.477V5.636H4.477A3.477,3.477,0,0,0,1,9.114V55.476a3.477,3.477,0,0,0,3.477,3.477H36.931a3.477,3.477,0,0,0,3.477-3.477V9.114A3.477,3.477,0,0,0,36.931,5.636Zm-19.7-1.159a1.159,1.159,0,0,1,1.159-1.159h4.636a1.159,1.159,0,0,1,1.159,1.159v6.954H17.227Zm20.863,51a1.159,1.159,0,0,1-1.159,1.159H4.477a1.159,1.159,0,0,1-1.159-1.159V9.114A1.159,1.159,0,0,1,4.477,7.954H14.909v3.477H11.432a1.159,1.159,0,0,0,0,2.318H29.977a1.159,1.159,0,0,0,0-2.318H26.5V7.954H36.931A1.159,1.159,0,0,1,38.09,9.114Z" transform="translate(1164 510)" fill="#151a6a"/>
      <path id="Path_227" data-name="Path 227" d="M32.659,15H7.159A1.159,1.159,0,0,0,6,16.159V49.772a1.159,1.159,0,0,0,1.159,1.159h25.5a1.159,1.159,0,0,0,1.159-1.159V16.159A1.159,1.159,0,0,0,32.659,15ZM14.291,48.613H8.318a11.6,11.6,0,0,1,7.8-10.939Zm-.177-19.7a5.8,5.8,0,1,1,5.8,5.8,5.8,5.8,0,0,1-5.8-5.8Zm2.527,19.7,1.918-11.5a10.672,10.672,0,0,1,2.7,0l1.918,11.5Zm8.887,0L23.7,37.674a11.6,11.6,0,0,1,7.8,10.939ZM31.5,40.941a13.966,13.966,0,0,0-6.916-5.412,8.114,8.114,0,1,0-9.349,0,13.966,13.966,0,0,0-6.916,5.412V17.318H31.5Z" transform="translate(1164.795 512.227)" fill="#151a6a"/>
    </g>
  </g>
</svg>
