<svg xmlns="http://www.w3.org/2000/svg" width="54" height="54" viewBox="0 0 54 54">
  <g id="Group_1320" data-name="Group 1320" transform="translate(-46 -134)">
    <circle id="Ellipse_33" data-name="Ellipse 33" cx="27" cy="27" r="27" transform="translate(46 134)" fill="#1d1f74"/>
    <path id="ic_call_24px" d="M9.016,15.946A25.175,25.175,0,0,0,19.967,26.9l3.656-3.656a1.652,1.652,0,0,1,1.7-.4,18.957,18.957,0,0,0,5.933.947,1.667,1.667,0,0,1,1.662,1.662v5.8a1.667,1.667,0,0,1-1.662,1.662A28.249,28.249,0,0,1,3,4.662,1.667,1.667,0,0,1,4.662,3h5.816A1.667,1.667,0,0,1,12.14,4.662a18.879,18.879,0,0,0,.947,5.933,1.668,1.668,0,0,1-.415,1.7Z" transform="translate(55.326 143.326)" fill="#fff"/>
  </g>
</svg>
